PathFileType	4	(X/Y/Z)	 3.0Hz3min.trc
DataRate	CameraRate	NumFrames	NumMarkers	Units	OrigDataRate	OrigDataStartFrame	OrigNumFrames
200	200	7	39	m	200	1	1000
Frame#	Time	C7			LSH			RSH			MAN			RASI			LASI			HIPR			HIPL			RPSI			LPSI			COX			RTHI1			RTHI2			RTHI3			RTHI4			RLKN			RMKN			RSHA1			RSHA2			RSHA3			RSHA4			RHEEL			RMET5			RMET1			RTOE			LTHI1			LTHI2			LTHI3			LTHI4			LLKN			LMKN			LSHA1			LSHA2			LSHA3			LSHA4			LHEEL			LMET5			LMET1			LTOE			
		X1	Y1	Z1	X2	Y2	Z2	X3	Y3	Z3	X4	Y4	Z4	X5	Y5	Z5	X6	Y6	Z6	X7	Y7	Z7	X8	Y8	Z8	X9	Y9	Z9	X10	Y10	Z10	X11	Y11	Z11	X12	Y12	Z12	X13	Y13	Z13	X14	Y14	Z14	X15	Y15	Z15	X16	Y16	Z16	X17	Y17	Z17	X18	Y18	Z18	X19	Y19	Z19	X20	Y20	Z20	X21	Y21	Z21	X22	Y22	Z22	X23	Y23	Z23	X24	Y24	Z24	X25	Y25	Z25	X26	Y26	Z26	X27	Y27	Z27	X28	Y28	Z28	X29	Y29	Z29	X30	Y30	Z30	X31	Y31	Z31	X32	Y32	Z32	X33	Y33	Z33	X34	Y34	Z34	X35	Y35	Z35	X36	Y36	Z36	X37	Y37	Z37	X38	Y38	Z38	X39	Y39	Z39	
1	0.0050	-0.300471	1.627896	-0.504022	-0.285177	1.589515	-0.744707	-0.222670	1.593973	-0.301452	-0.159358	1.555108	-0.528347	-0.145345	1.100716	-0.402718	-0.167849	1.106104	-0.639316	-0.212405	1.157094	-0.349812	-0.244813	1.166875	-0.675486	-0.332449	1.132254	-0.444758	-0.340784	1.135597	-0.554940	-0.345031	1.128834	-0.500769	-0.224774	0.869731	-0.310872	-0.213491	0.812074	-0.301879	-0.149117	0.821079	-0.308876	-0.153584	0.881296	-0.320439	-0.204956	0.522133	-0.322276	-0.197820	0.509649	-0.426740	-0.294616	0.405858	-0.274798	-0.317318	0.369341	-0.276902	-0.247607	0.382201	-0.296862	-0.264789	0.345783	-0.296798	-0.456694	0.094006	-0.336107	-0.286394	0.027435	-0.265421	-0.244681	0.042572	-0.361902	-0.210442	0.029461	-0.358675	-0.256887	0.844743	-0.709689	-0.242945	0.785832	-0.718450	-0.179267	0.796271	-0.725753	-0.185040	0.856037	-0.719141	-0.224534	0.520541	-0.691238	-0.193906	0.509441	-0.598605	-0.361345	0.381504	-0.705603	-0.377563	0.344672	-0.699843	-0.318992	0.324330	-0.710409	-0.310289	0.367467	-0.715332	-0.477302	0.085066	-0.636623	-0.318789	0.029239	-0.730709	-0.259857	0.040463	-0.649897	-0.221967	0.028173	-0.664395	
2	0.0100	-0.300778	1.631247	-0.504143	-0.285014	1.593156	-0.744567	-0.223269	1.597885	-0.301537	-0.159586	1.558844	-0.528189	-0.144168	1.104502	-0.402622	-0.166669	1.109763	-0.639081	-0.211214	1.160879	-0.349749	-0.243215	1.170714	-0.675420	-0.331292	1.135925	-0.444660	-0.339587	1.139231	-0.555138	-0.343967	1.132566	-0.500801	-0.224465	0.873285	-0.310276	-0.213342	0.815490	-0.301245	-0.148930	0.824298	-0.308176	-0.153120	0.884494	-0.319797	-0.205723	0.525548	-0.321363	-0.198010	0.512940	-0.425899	-0.295207	0.409129	-0.274103	-0.317765	0.372449	-0.276402	-0.247960	0.385566	-0.295854	-0.265011	0.349039	-0.295865	-0.455611	0.097083	-0.335671	-0.286210	0.027544	-0.265572	-0.244519	0.042547	-0.361736	-0.210492	0.029459	-0.358622	-0.257151	0.848449	-0.709590	-0.243622	0.789420	-0.718366	-0.179930	0.799456	-0.726132	-0.185263	0.859210	-0.719509	-0.226347	0.523845	-0.691581	-0.195338	0.512341	-0.598808	-0.362354	0.384444	-0.705629	-0.378389	0.347669	-0.699871	-0.319823	0.327405	-0.710789	-0.311255	0.370602	-0.715707	-0.476524	0.087796	-0.637133	-0.318460	0.029370	-0.730605	-0.259780	0.040414	-0.650102	-0.222027	0.028174	-0.664398	
3	0.0150	-0.301047	1.634664	-0.504268	-0.284752	1.596848	-0.744383	-0.223910	1.601838	-0.301627	-0.159746	1.562536	-0.528049	-0.143026	1.108317	-0.402545	-0.165517	1.113414	-0.638895	-0.210006	1.164740	-0.349708	-0.241748	1.174586	-0.675319	-0.330024	1.139719	-0.444616	-0.338414	1.142961	-0.555296	-0.342909	1.136390	-0.500783	-0.224226	0.876795	-0.309627	-0.213204	0.818933	-0.300590	-0.148783	0.827531	-0.307416	-0.152682	0.887740	-0.319087	-0.206441	0.528952	-0.320491	-0.198016	0.516203	-0.424964	-0.295749	0.412409	-0.273407	-0.318146	0.375574	-0.275831	-0.248279	0.388959	-0.294763	-0.265166	0.352352	-0.294848	-0.454353	0.100147	-0.335244	-0.285942	0.027676	-0.265693	-0.244368	0.042466	-0.361456	-0.210548	0.029449	-0.358529	-0.257515	0.852200	-0.709412	-0.244410	0.793064	-0.718224	-0.180711	0.802729	-0.726561	-0.185617	0.862444	-0.719903	-0.228174	0.527323	-0.691756	-0.196569	0.515556	-0.599009	-0.363266	0.387463	-0.705688	-0.379116	0.350668	-0.699893	-0.320544	0.330586	-0.711131	-0.312124	0.373808	-0.716070	-0.475614	0.090642	-0.637645	-0.318078	0.029547	-0.730403	-0.259667	0.040351	-0.650331	-0.222093	0.028167	-0.664412	
4	0.0200	-0.301308	1.638082	-0.504396	-0.284510	1.600532	-0.744199	-0.224558	1.605789	-0.301720	-0.159902	1.566267	-0.527906	-0.141888	1.112123	-0.402471	-0.164360	1.117109	-0.638763	-0.208790	1.168621	-0.349682	-0.240312	1.178463	-0.675210	-0.328769	1.143528	-0.444554	-0.337255	1.146710	-0.555434	-0.341854	1.140238	-0.500753	-0.223993	0.880312	-0.308986	-0.213073	0.822378	-0.299936	-0.148637	0.830770	-0.306645	-0.152250	0.890991	-0.318370	-0.207226	0.532389	-0.319469	-0.197777	0.519441	-0.424069	-0.296262	0.415689	-0.272703	-0.318497	0.378703	-0.275249	-0.248570	0.392356	-0.293680	-0.265293	0.355668	-0.293831	-0.453141	0.103283	-0.334873	-0.285655	0.027822	-0.265836	-0.244211	0.042406	-0.361160	-0.210604	0.029447	-0.358420	-0.257888	0.855961	-0.709216	-0.245202	0.796725	-0.718071	-0.181503	0.806020	-0.726981	-0.185989	0.865705	-0.720291	-0.229967	0.530896	-0.691995	-0.197629	0.518996	-0.599318	-0.364138	0.390486	-0.705736	-0.379803	0.353669	-0.699903	-0.321223	0.333779	-0.711462	-0.312959	0.377025	-0.716417	-0.474677	0.093531	-0.638185	-0.317701	0.029715	-0.730147	-0.259545	0.040305	-0.650560	-0.222160	0.028166	-0.664431	
5	0.0250	-0.301539	1.641522	-0.504526	-0.284229	1.604225	-0.743990	-0.225226	1.609744	-0.301822	-0.160069	1.570016	-0.527773	-0.140774	1.115929	-0.402413	-0.163284	1.120773	-0.638611	-0.207550	1.172560	-0.349678	-0.238977	1.182362	-0.675074	-0.327486	1.147403	-0.444487	-0.336126	1.150520	-0.555520	-0.340807	1.144163	-0.500677	-0.223795	0.883812	-0.308297	-0.212949	0.825830	-0.299273	-0.148500	0.834012	-0.305829	-0.151835	0.894259	-0.317616	-0.207947	0.536033	-0.318501	-0.197713	0.522673	-0.423011	-0.296699	0.418953	-0.271983	-0.318770	0.381831	-0.274628	-0.248800	0.395754	-0.292579	-0.265345	0.359005	-0.292786	-0.451772	0.106416	-0.334520	-0.285294	0.028003	-0.266001	-0.244042	0.042344	-0.360791	-0.210658	0.029452	-0.358260	-0.258310	0.859748	-0.708966	-0.246040	0.800425	-0.717880	-0.182354	0.809372	-0.727408	-0.186442	0.869029	-0.720683	-0.231578	0.534533	-0.692228	-0.198305	0.522581	-0.599511	-0.364909	0.393547	-0.705781	-0.380385	0.356668	-0.699897	-0.321790	0.337019	-0.711761	-0.313694	0.380283	-0.716736	-0.473646	0.096500	-0.638731	-0.317305	0.029910	-0.729782	-0.259389	0.040281	-0.650807	-0.222230	0.028169	-0.664465	
6	0.0300	-0.301746	1.644941	-0.504660	-0.284022	1.607891	-0.743789	-0.225891	1.613663	-0.301937	-0.160259	1.573728	-0.527656	-0.139673	1.119715	-0.402370	-0.162284	1.124444	-0.638485	-0.206282	1.176538	-0.349722	-0.237720	1.186265	-0.674924	-0.326247	1.151288	-0.444359	-0.335038	1.154373	-0.555529	-0.339772	1.148131	-0.500562	-0.223618	0.887315	-0.307623	-0.212839	0.829293	-0.298622	-0.148353	0.837247	-0.304970	-0.151441	0.897531	-0.316857	-0.208690	0.539610	-0.317525	-0.197507	0.526079	-0.421842	-0.297035	0.422204	-0.271260	-0.318947	0.384972	-0.273997	-0.248934	0.399152	-0.291520	-0.265310	0.362336	-0.291761	-0.450329	0.109574	-0.334081	-0.284879	0.028243	-0.266228	-0.243831	0.042338	-0.360394	-0.210697	0.029489	-0.358047	-0.258742	0.863550	-0.708671	-0.246874	0.804152	-0.717658	-0.183219	0.812781	-0.727798	-0.186932	0.872428	-0.721055	-0.232898	0.538221	-0.692531	-0.199047	0.526250	-0.600181	-0.365563	0.396607	-0.705809	-0.380848	0.359649	-0.699860	-0.322226	0.340271	-0.712027	-0.314325	0.383557	-0.717007	-0.472541	0.099529	-0.639291	-0.316913	0.030143	-0.729307	-0.259205	0.040301	-0.651063	-0.222298	0.028188	-0.664517	
7	0.0350	-0.301922	1.648308	-0.504798	-0.283849	1.611504	-0.743578	-0.226562	1.617534	-0.302067	-0.160436	1.577439	-0.527543	-0.138594	1.123452	-0.402343	-0.161351	1.128119	-0.638396	-0.204983	1.180546	-0.349779	-0.236563	1.190192	-0.674754	-0.325027	1.155201	-0.444181	-0.333995	1.158248	-0.555475	-0.338751	1.152136	-0.500395	-0.223445	0.890803	-0.306936	-0.212738	0.832733	-0.297987	-0.148202	0.840470	-0.304090	-0.151063	0.900781	-0.316091	-0.209311	0.543125	-0.316577	-0.197106	0.529206	-0.420758	-0.297247	0.425420	-0.270535	-0.319006	0.388082	-0.273357	-0.248964	0.402524	-0.290512	-0.265165	0.365640	-0.290770	-0.448878	0.112721	-0.333659	-0.284392	0.028565	-0.266511	-0.243567	0.042410	-0.359955	-0.210707	0.029565	-0.357746	-0.259178	0.867340	-0.708336	-0.247681	0.807889	-0.717414	-0.184074	0.816227	-0.728168	-0.187447	0.875879	-0.721404	-0.234156	0.541876	-0.692708	-0.199951	0.529966	-0.600249	-0.366077	0.399640	-0.705822	-0.381166	0.362601	-0.699810	-0.322512	0.343506	-0.712257	-0.314815	0.386822	-0.717239	-0.471360	0.102592	-0.639839	-0.316541	0.030428	-0.728715	-0.259004	0.040350	-0.651307	-0.222362	0.028232	-0.664605	
